<svg width="512" height="512" viewBox="0 0 512 512" fill="none" xmlns="http://www.w3.org/2000/svg">
<g id="logo">
<path id="left-angle" d="M166.857 0L0 256L166.857 512V420.571L64 254.123L166.857 91.4286V0Z" fill="#2B2730"/>
<path id="right-angle" d="M345.143 512L512 256L345.143 0.000152588L345.143 91.4287L448 257.877L345.143 420.572L345.143 512Z" fill="#2B2730"/>
<path id="right" d="M321 237.931L342.333 258.897L299.667 300.828L235.667 237.931L214.333 258.897L299.667 342.759L385 258.897L342.333 216.966L321 237.931Z" fill="#2B2730"/>
<path id="left" d="M193 196L129 258.897L219.667 348L240.945 327.089L171.669 258.899L214.392 216.912L193 196Z" fill="#2B2730"/>
</g>
</svg>
